<svg xmlns="http://www.w3.org/2000/svg" width="732" height="226" viewBox="0 0 732 226">
    <g fill="none" fill-rule="evenodd">
        <g>
            <g>
                <path fill="#FFF" d="M612.512 157.449V129.51l-12.814 4.807c-6.516 2.553-11.133 5.102-13.799 7.65-2.689 2.569-4.037 5.721-4.037 9.58 0 3.887 1.274 7.062 3.806 9.523 2.552 2.469 5.868 3.669 9.941 3.669 6.08 0 11.725-2.423 16.903-7.291zm18.82-38.091V159.6c0 3.248 1.101 4.811 3.293 4.811 2.258 0 5.79-1.712 10.552-5.147v11.433c-4.245 2.736-7.683 4.555-10.278 5.503-2.595.978-5.304 1.479-8.13 1.479-8.048 0-12.791-3.115-14.257-9.324-8.158 6.21-16.876 9.324-26.123 9.324-6.766 0-12.414-2.167-16.915-6.516-4.52-4.352-6.77-9.778-6.77-16.347 0-5.965 2.196-11.28 6.594-15.977 4.39-4.677 10.604-8.41 18.683-11.124l24.531-8.2v-5.102c0-11.471-5.794-17.219-17.534-17.219-10.467 0-20.674 5.293-30.631 15.84V92.578c7.472-8.54 18.185-12.836 32.171-12.836 10.475 0 18.883 2.68 25.245 8.025 2.082 1.704 3.979 4.024 5.672 6.852 1.666 2.87 2.744 5.69 3.227 8.533.43 2.843.67 8.261.67 16.206z" transform="translate(-105 -81) translate(105 81)"/>
                <path fill="#3FAC50" d="M668.215 0.706L730.92 59.841 731.086 88.333 674.882 35.337 638.305 70.516 638.475 29.34 668.215 0.706" transform="translate(-105 -81) translate(105 81)"/>
                <path fill="#FFF" d="M2.867 81.461L85.05 81.461 34.128 159.914 85.05 159.914 85.05 177.679.859 177.679 51.835 99.198 2.867 99.198 2.867 81.461M114.654 119.515h48.029c-.528-7.551-2.735-13.367-6.758-17.48-4.015-4.084-9.376-6.132-16.195-6.132-6.766 0-12.301 2.048-16.611 6.133-4.306 4.112-7.122 9.928-8.465 17.479zm66.614 11.303h-66.916c.45 9.018 3.499 16.149 9.15 21.445 5.602 5.32 12.888 7.964 21.79 7.964 12.422 0 23.858-3.764 34.386-11.304v18.148c-5.815 3.813-11.572 6.534-17.274 8.181-5.757 1.617-12.371 2.427-20.083 2.427-10.455 0-18.993-2.167-25.46-6.474-6.524-4.344-11.68-10.134-15.617-17.436-3.883-7.31-5.885-15.752-5.885-25.358 0-14.391 4.131-26.115 12.386-35.122 8.197-9.049 18.873-13.547 31.977-13.547 12.615 0 22.732 4.44 30.265 13.268 7.538 8.793 11.281 20.612 11.281 35.423v2.385zM280.255 108.01v69.669h-18.677v-53.577c0-10.65-1.411-18.098-4.26-22.275-2.796-4.25-7.72-6.36-14.748-6.36-3.903 0-7.53.925-10.794 2.78-3.282 1.823-6.994 5.113-11.208 9.763v69.669h-18.682V81.713h18.682v12.631c9.54-9.724 18.885-14.602 28.003-14.602 12.04 0 21.331 5.823 27.911 17.46 10.008-11.637 20.461-17.46 31.351-17.46 9.145 0 16.684 3.403 22.612 10.232 5.936 6.798 8.896 17.157 8.896 31.116v56.589h-18.697v-57.053c0-8.04-1.61-14.161-4.847-18.43-3.22-4.282-7.818-6.392-13.85-6.392-7.75 0-14.95 4.065-21.692 12.206M409.925 98.454c-8.978 0-16.377 2.968-22.12 8.983-5.788 6.002-8.696 13.696-8.696 22.972 0 9.219 3.012 16.777 8.909 22.603 5.866 5.836 13.458 8.755 22.741 8.755 9.214 0 16.76-2.938 22.618-8.906 5.885-5.868 8.828-13.426 8.828-22.648 0-9.173-3.086-16.774-9.183-22.776-6.117-6.015-13.825-8.983-23.097-8.983zm.973-16.993c14.493 0 26.51 4.713 36.107 14.117 9.57 9.45 14.327 21.324 14.327 35.584 0 13.851-4.823 25.359-14.54 34.511-9.73 9.18-21.938 13.724-36.724 13.724-14.234 0-26.17-4.629-35.74-13.928-9.565-9.284-14.369-20.939-14.369-34.84 0-14.059 4.85-25.748 14.532-35.14 9.658-9.35 21.841-14.028 36.407-14.028zM512.007 97.764c-5.134 0-9.493 1.764-13.086 5.193-3.579 3.505-5.366 7.677-5.366 12.554 0 4.939 1.756 9.038 5.265 12.262 3.548 3.228 7.96 4.854 13.438 4.854 5.308 0 9.724-1.66 13.298-4.954 3.575-3.332 5.35-7.443 5.35-12.366 0-5.023-1.802-9.188-5.423-12.543-3.59-3.344-8.064-5-13.476-5zm-4.362 83.81c-6.331 0-11.485 1.318-15.526 4.034-4.003 2.67-6.069 6.187-6.069 10.424 0 9.843 8.821 14.801 26.432 14.801 8.338 0 14.769-1.252 19.382-3.698 4.547-2.493 6.825-5.979 6.825-10.502 0-4.449-2.892-8.062-8.64-10.867-5.798-2.812-13.279-4.191-22.404-4.191zm-31.017-67.034c0-10.216 3.752-18.252 11.156-24.192 7.47-5.917 17.58-8.887 30.43-8.887h39.336v14.658h-19.386c3.748 3.833 6.35 7.28 7.751 10.424 1.467 3.097 2.212 6.707 2.212 10.74 0 4.977-1.432 9.928-4.258 14.72-2.868 4.827-6.47 8.552-10.959 11.095-4.47 2.558-11.743 4.63-21.915 6.144-7.083 1.048-10.638 3.502-10.638 7.37 0 2.2 1.358 4.025 3.96 5.458 2.69 1.437 7.443 2.913 14.453 4.415 11.62 2.539 19.127 4.569 22.513 6.017 3.343 1.468 6.362 3.545 9.087 6.203 4.532 4.592 6.84 10.35 6.84 17.32 0 9.03-4.018 16.287-12.051 21.677-8.037 5.428-18.804 8.086-32.241 8.086-13.608 0-24.405-2.697-32.538-8.129-8.118-5.462-12.175-12.728-12.175-21.873 0-12.955 7.932-21.292 23.813-25.044-6.357-4.064-9.534-8.148-9.534-12.15 0-3.028 1.362-5.84 4.084-8.302 2.717-2.496 6.388-4.33 11.001-5.517-13.947-6.24-20.941-16.314-20.941-30.233z" transform="translate(-105 -81) translate(105 81)"/>
            </g>
        </g>
    </g>
</svg>
